<?xml version="1.0" encoding="UTF-8"?>
<!DOCTYPE svg PUBLIC "-//W3C//DTD SVG 1.1//EN" "http://www.w3.org/Graphics/SVG/1.1/DTD/svg11.dtd">
<!-- Creator: CorelDRAW 2020 (64-Bit) -->
<svg xmlns="http://www.w3.org/2000/svg" xml:space="preserve" width="210mm" height="297mm" version="1.1" style="shape-rendering:geometricPrecision; text-rendering:geometricPrecision; image-rendering:optimizeQuality; fill-rule:evenodd; clip-rule:evenodd"
viewBox="0 0 21000 29700"
 xmlns:xlink="http://www.w3.org/1999/xlink"
 xmlns:xodm="http://www.corel.com/coreldraw/odm/2003">
 <defs>
  <style type="text/css">
   <![CDATA[
    .str0 {stroke:#2B2A29;stroke-width:150;stroke-miterlimit:22.9256}
    .str1 {stroke:#DA8126;stroke-width:150;stroke-miterlimit:22.9256}
    .fil0 {fill:none}
   ]]>
  </style>
 </defs>
 <g id="Слой_x0020_1">
  <metadata id="CorelCorpID_0Corel-Layer"/>
  <path class="fil0 str0" d="M3780.37 1988.03c1366.9,0 6225,-1183.44 6225,1612.5 0,2795.94 -2908.1,4687.5 -4275,4687.5 -1366.9,0 -4725,3208.44 -4725,412.5 0,-2795.94 1408.1,-6712.5 2775,-6712.5z"/>
  <path class="fil0 str1" d="M19005.37 11738.03c2816.65,0 3450,3290.59 3450,8737.5 0,3302.65 -4318.15,3900.09 -5216.17,1673.85 -583.04,-1445.39 24.98,-4487.66 -1083.83,-4486.35 -1999.91,2.37 -1728.81,-437.82 -2221.96,-991.74 -189.39,-212.72 -1042.43,-4506.93 -1078.04,-6020.76 -128.34,-5455.53 3333.35,1087.5 6150,1087.5z"/>
  <path class="fil0 str0" d="M2880.37 14588.03c4732.82,-240.2 5901.6,2229.33 2775,5137.5 -214.85,199.84 -1002.4,2455.26 -2400.71,2463.29 -1297.93,7.45 -2999.29,-2121.04 -2999.29,-2313.29 0,-1538.74 -1509.47,-4347.8 -932.72,-5380.77 378.06,-677.12 2509.4,146.47 3557.72,93.27z"/>
 </g>
</svg>
